<svg height="511.99953pt" viewBox="1 1 511.99953 511.99953" width="511.99953pt" xmlns="http://www.w3.org/2000/svg"><path d="m325.808594 512h-186.171875l4.628906-2.316406c26.367187-13.183594 44.933594-38.074219 50.046875-67.109375l9.433594-53.519531c3.277344-22.929688 22.914062-39.964844 46.078125-39.964844h58.898437c23.164063 0 42.800782 17.035156 46.078125 39.964844l17.085938 69.816406c3.636719 25.449218-14.046875 49.023437-39.496094 52.660156-2.179687.3125-4.378906.46875-6.582031.46875zm0 0" fill="#999aac"/><path d="m371.152344 455.871094-1.933594-7.90625c-.804688-3.273438-1.738281-7.09375-2.738281-11.183594l-3.136719-12.816406-3.136719-12.820313c-1-4.089843-1.9375-7.910156-2.738281-11.183593l-1.933594-7.90625-.734375-3c-3.277343-22.929688-22.914062-39.964844-46.078125-39.964844h-1.28125c-6.425781 0-11.636718 5.210937-11.636718 11.636718 0 6.425782 5.210937 11.636719 11.636718 11.636719h1.28125c11.5625.046875 21.355469 8.539063 23.039063 19.980469.105469.753906.25 1.5.433593 2.242188l16.769532 68.523437c1.292968 12.789063-8.027344 24.207031-20.816406 25.5-.777344.078125-1.558594.117187-2.339844.117187h-197.808594c-6.425781 0-11.636719 5.210938-11.636719 11.636719s5.210938 11.636719 11.636719 11.636719h197.808594c25.691406.015625 46.535156-20.796875 46.550781-46.488281 0-2.222657-.15625-4.441407-.472656-6.640625-.003907-.015625-.269531-1.105469-.734375-3zm0 0" fill="#7c7f95"/><path d="m244.363281 372.363281h46.546875c19.277344 0 34.90625 15.628907 34.90625 34.910157 0 19.277343-15.628906 34.910156-34.90625 34.910156h-46.546875c-19.28125 0-34.910156-15.632813-34.910156-34.910156 0-19.28125 15.628906-34.910157 34.910156-34.910157zm0 0" fill="#7c7f95"/><path d="m46.546875 0h418.90625c25.707031 0 46.546875 20.839844 46.546875 46.546875v302.542969c0 25.707031-20.839844 46.546875-46.546875 46.546875h-418.90625c-25.707031 0-46.546875-20.839844-46.546875-46.546875v-302.542969c0-25.707031 20.839844-46.546875 46.546875-46.546875zm0 0" fill="#999aac"/><path d="m46.546875 0h349.089844c25.707031 0 46.542969 20.839844 46.542969 46.546875v302.542969c0 25.707031-20.835938 46.546875-46.542969 46.546875h-349.089844c-25.707031 0-46.546875-20.839844-46.546875-46.546875v-302.542969c0-25.707031 20.839844-46.546875 46.546875-46.546875zm0 0" fill="#cacad4"/><path d="m464.796875 11.460938c-1.3125.003906-2.621094.113281-3.914063.332031-12.703124 2.199219-21.308593 14.15625-19.359374 26.898437.011718.085938.027343.171875.042968.257813v.019531l.007813.042969c.050781.316406.101562.628906.144531.945312.027344.179688.058594.359375.089844.539063.019531.230468.042968.464844.070312.699218.128906 1.15625.21875 2.324219.265625 3.503907l.003907.078125v.007812l.003906.074219v.011719c0 .023437 0 .046875.003906.074218v.007813c.003906.109375.003906.21875.007812.328125v.007812l.003907.074219v.101563l.003906.058594v.105468c0 .019532.003906.039063.003906.058594v.183594l.003907.015625v.066406.269531l.003906.050782v303.125c-.003906.023437-.003906.046874-.003906.070312v.234375c0 .019531 0 .035156-.003907.054687v.09375.058594.015625l-.003906.0625v.089844.054687.015626c0 .019531-.003906.042968-.003906.066406v.085937c-.003907.046875-.003907.089844-.003907.136719v.011719l-.003906.066406v.074219l-.003906.007812v.070313c-.003906.050781-.003906.097656-.007812.144531v.007812c0 .046876-.003907.09375-.003907.144532v.003906c0 .023438-.003906.046875-.003906.070312v.003907l-.003906.144531v.003906c-.003907.046875-.007813.097656-.007813.144532v.003906c-.171875 3.679687-.785156 7.324218-1.820312 10.859375-3.613282 12.335937 3.457031 25.265625 15.792968 28.878906 12.335938 3.613281 25.261719-3.457031 28.875-15.792969 2.492188-8.507812 3.753907-17.328125 3.75-26.195312v-302.542969c0-3.539063-.199218-7.074219-.597656-10.585937-.039062-.339844-.085937-.675782-.136718-1.007813-.046876-.507813-.109376-1.019531-.1875-1.53125l-.394532-2.53125c-1.707031-11.171875-11.3125-19.421875-22.613281-19.429687zm0 0" fill="#7c7f95"/><path d="m395.636719 0h-349.089844c-25.707031 0-46.546875 20.839844-46.546875 46.542969v.003906 256h442.183594v-256c0-25.707031-20.839844-46.546875-46.546875-46.546875zm0 0" fill="#2c2f53"/><path d="m232.726562 349.089844c0 12.855468-10.417968 23.273437-23.273437 23.273437-12.851563 0-23.269531-10.417969-23.269531-23.273437 0-12.851563 10.417968-23.273438 23.269531-23.273438 12.855469 0 23.273437 10.421875 23.273437 23.273438zm0 0" fill="#4c4f6e"/><path d="m477.089844 69.816406c6.425781 0 11.636718 5.210938 11.636718 11.636719v116.363281c0 6.429688-5.210937 11.636719-11.636718 11.636719-6.425782 0-11.636719-5.207031-11.636719-11.636719v-116.363281c0-6.425781 5.210937-11.636719 11.636719-11.636719zm0 0" fill="#2c2f53"/><path d="m34.910156 302.546875h372.363282c6.425781 0 11.636718 5.207031 11.636718 11.632813 0 6.429687-5.210937 11.636718-11.636718 11.636718h-372.363282c-6.425781 0-11.636718-5.207031-11.636718-11.636718 0-6.425782 5.210937-11.632813 11.636718-11.632813zm0 0" fill="#eaeaee"/><path d="m46.546875 232.726562h349.089844c12.851562 0 23.273437 10.421876 23.273437 23.273438s-10.421875 23.273438-23.273437 23.273438h-349.089844c-12.855469 0-23.273437-10.421876-23.273437-23.273438s10.417968-23.273438 23.273437-23.273438zm0 0" fill="#4c4f6e"/><path d="m69.816406 209.453125c12.855469 0 23.273438 10.421875 23.273438 23.273437 0 12.855469-10.417969 23.273438-23.273438 23.273438-12.851562 0-23.269531-10.417969-23.269531-23.273438 0-12.851562 10.417969-23.273437 23.269531-23.273437zm0 0" fill="#11cbe5"/><path d="m58.183594 209.453125c6.425781 0 11.632812 5.210937 11.632812 11.636719 0 6.425781-5.207031 11.636718-11.632812 11.636718-6.429688 0-11.636719-5.210937-11.636719-11.636718 0-6.425782 5.207031-11.636719 11.636719-11.636719zm0 0" fill="#bcf4f5"/><path d="m162.910156 209.453125c12.851563 0 23.273438 10.421875 23.273438 23.273437 0 12.855469-10.421875 23.273438-23.273438 23.273438-12.855468 0-23.273437-10.417969-23.273437-23.273438 0-12.851562 10.417969-23.273437 23.273437-23.273437zm0 0" fill="#91edf8"/><path d="m256 209.453125c12.851562 0 23.273438 10.421875 23.273438 23.273437 0 12.855469-10.421876 23.273438-23.273438 23.273438s-23.273438-10.417969-23.273438-23.273438c0-12.851562 10.421876-23.273437 23.273438-23.273437zm0 0" fill="#fdb8bf"/><path d="m349.089844 209.453125c12.855468 0 23.273437 10.421875 23.273437 23.273437 0 12.855469-10.417969 23.273438-23.273437 23.273438-12.851563 0-23.273438-10.417969-23.273438-23.273438 0-12.851562 10.421875-23.273437 23.273438-23.273437zm0 0" fill="#fa4659"/><path d="m244.363281 209.453125c6.425781 0 11.636719 5.210937 11.636719 11.636719 0 6.425781-5.210938 11.636718-11.636719 11.636718s-11.636719-5.210937-11.636719-11.636718c0-6.425782 5.210938-11.636719 11.636719-11.636719zm0 0" fill="#fedee1"/><path d="m337.453125 209.453125c6.429687 0 11.636719 5.210937 11.636719 11.636719 0 6.425781-5.207032 11.636718-11.636719 11.636718-6.425781 0-11.636719-5.210937-11.636719-11.636718 0-6.425782 5.210938-11.636719 11.636719-11.636719zm0 0" fill="#fedee1"/><path d="m151.273438 209.453125c6.425781 0 11.636718 5.210937 11.636718 11.636719 0 6.425781-5.210937 11.636718-11.636718 11.636718-6.425782 0-11.636719-5.210937-11.636719-11.636718 0-6.425782 5.210937-11.636719 11.636719-11.636719zm0 0" fill="#e9fff5"/><path d="m104.726562 488.726562h116.363282c6.425781 0 11.636718 5.210938 11.636718 11.636719s-5.210937 11.636719-11.636718 11.636719h-116.363282c-6.425781 0-11.636718-5.210938-11.636718-11.636719s5.210937-11.636719 11.636718-11.636719zm0 0" fill="#cacad4"/></svg>